HIERARCHY
ROOT Hips
{
	OFFSET -1.011428 107.105003 -1.684370
	CHANNELS 6 Xposition Yposition Zposition Xrotation Yrotation Zrotation
	JOINT Chest
	{
		OFFSET -0.473799 13.635208 -0.103801
		CHANNELS 3 Xrotation Yrotation Zrotation
		JOINT Chest2
		{
			OFFSET -2.072818 21.264168 1.614007
			CHANNELS 3 Xrotation Yrotation Zrotation
			JOINT Chest3
			{
				OFFSET -0.697260 14.854004 -1.300929
				CHANNELS 3 Xrotation Yrotation Zrotation
				JOINT Neck
				{
					OFFSET 0.086264 17.280151 -0.068825
					CHANNELS 3 Xrotation Yrotation Zrotation
					JOINT Head
					{
						OFFSET -0.366303 10.404526 1.199745
						CHANNELS 3 Xrotation Yrotation Zrotation
						End Site
						{
							OFFSET -0.362633 10.412750 1.127224
						}
					}
				}
				JOINT LeftCollar
				{
					OFFSET 4.529782 13.245453 2.417344
					CHANNELS 3 Xrotation Yrotation Zrotation
					JOINT LeftUpArm
					{
						OFFSET 15.072078 -3.578873 -8.277902
						CHANNELS 3 Xrotation Yrotation Zrotation
						JOINT LeftLowArm
						{
							OFFSET 29.416832 -15.593811 5.586696
							CHANNELS 3 Xrotation Yrotation Zrotation
							JOINT LeftHand
							{
								OFFSET 25.037472 -4.710648 15.870776
								CHANNELS 3 Xrotation Yrotation Zrotation
								End Site
								{
									OFFSET 5.472092 -1.029526 3.468650
								}
							}
						}
					}
				}
				JOINT RightCollar
				{
					OFFSET -3.848496 13.290619 3.218282
					CHANNELS 3 Xrotation Yrotation Zrotation
					JOINT RightUpArm
					{
						OFFSET -16.752356 -0.664429 -5.235785
						CHANNELS 3 Xrotation Yrotation Zrotation
						JOINT RightLowArm
						{
							OFFSET -31.763144 3.293060 10.954117
							CHANNELS 3 Xrotation Yrotation Zrotation
							JOINT RightHand
							{
								OFFSET -26.763237 2.379333 13.379923
								CHANNELS 3 Xrotation Yrotation Zrotation
								End Site
								{
									OFFSET -5.849373 0.520035 2.924322
								}
							}
						}
					}
				}
			}
		}
	}
	JOINT LeftUpLeg
	{
		OFFSET 10.014528 0.348412 0.083564
		CHANNELS 3 Xrotation Yrotation Zrotation
		JOINT LeftLowLeg
		{
			OFFSET 10.398092 -45.414860 8.565062
			CHANNELS 3 Xrotation Yrotation Zrotation
			JOINT LeftFoot
			{
				OFFSET -1.621155 -41.000042 -17.802729
				CHANNELS 3 Xrotation Yrotation Zrotation
				JOINT LeftToe
				{
					OFFSET 0.303102 -17.616743 15.783485
					CHANNELS 3 Xrotation Yrotation Zrotation
					End Site
					{
						OFFSET 3.611673 -3.821518 23.063189
					}
				}
			}
		}
	}
	JOINT RightUpLeg
	{
		OFFSET -10.014524 -0.348610 -0.083563
		CHANNELS 3 Xrotation Yrotation Zrotation
		JOINT RightLowLeg
		{
			OFFSET -1.603608 -47.308418 -1.831477
			CHANNELS 3 Xrotation Yrotation Zrotation
			JOINT RightFoot
			{
				OFFSET 2.491813 -42.040558 -15.065274
				CHANNELS 3 Xrotation Yrotation Zrotation
				JOINT RightToe
				{
					OFFSET 0.329721 -16.127993 17.301329
					CHANNELS 3 Xrotation Yrotation Zrotation
					End Site
					{
						OFFSET -4.810928 -2.175187 23.058178
					}
				}
			}
		}
	}
}
MOTION
Frames: 5
Frame Time: 0.033333
2.460526 105.778572 -1.111727 7.641473 -1.798500 -4.759014 -5.447230 -0.764979 0.374407 -2.186485 -1.029951 3.733386 4.486748 0.083725 -0.531891 -3.294108 2.313128 0.841945 0.000000 -0.000000 0.000000 6.496285 1.522547 -12.708572 5.553959 -14.746807 -38.096347 22.648277 -5.059360 -4.875027 -0.000005 0.000001 -0.000000 10.256145 -0.758097 25.488159 20.207468 20.071771 51.972733 16.743512 9.919386 -11.766461 0.000002 0.000002 0.000001 9.788015 0.325665 -3.094312 -23.479549 1.761164 10.635305 0.375121 -5.730135 1.891584 -0.000001 -0.000000 0.000002 -2.571422 0.947488 2.340943 -7.111928 -5.284946 -3.136236 6.299412 5.516366 -3.809765 -0.000001 -0.000001 -0.000000 
2.455252 105.773376 -1.110895 8.072340 -1.533975 -4.771322 -5.976410 -0.788338 0.462061 -1.879204 -0.955265 3.684563 4.325438 -0.160037 -0.524145 -3.267169 2.370105 0.822489 -0.000001 0.000000 0.000000 6.470080 1.568479 -12.727007 5.652046 -14.672512 -38.029237 22.763987 -5.089758 -5.222448 -0.000004 -0.000003 -0.000003 10.194857 -0.973174 25.598658 20.333770 19.928428 52.146264 16.573953 10.138645 -12.145750 0.000002 -0.000001 0.000003 9.424118 0.221234 -3.038210 -23.069936 1.756720 10.715563 -0.130486 -6.427966 2.007215 0.000000 0.000001 0.000001 -2.956759 0.997034 2.337257 -7.041181 -5.337354 -2.956754 6.578378 4.714103 -3.601738 0.000000 -0.000002 -0.000002 
2.447500 105.765877 -1.104677 8.102773 -1.573362 -4.676333 -5.823680 -0.759738 0.362864 -2.473489 -0.989109 3.709022 4.824986 -0.095358 -0.542630 -3.015764 2.415676 0.755725 0.000000 0.000000 0.000000 6.335112 1.884406 -12.737861 5.629380 -14.515675 -38.122995 22.707548 -4.932928 -5.510799 0.000003 0.000001 -0.000000 10.060543 -1.258370 25.491260 20.439561 19.477295 52.477638 16.509520 10.302798 -11.714281 0.000003 0.000002 0.000001 9.513857 0.170951 -3.093204 -22.941357 1.729659 10.705456 -0.323697 -6.739967 2.031114 -0.000001 0.000000 0.000001 -2.892781 1.036719 2.264524 -7.016790 -5.270073 -2.930278 6.662708 4.583711 -3.534469 0.000000 -0.000000 -0.000002 
2.433664 105.763687 -1.100183 8.143111 -1.166719 -4.621967 -5.787010 -0.760687 0.302345 -2.117507 -1.066904 3.820435 4.526243 -0.296359 -0.656464 -3.388953 2.282152 0.768852 -0.000001 0.000000 -0.000000 6.409153 1.303354 -12.773794 5.377863 -14.603549 -37.951188 22.357106 -5.147480 -5.234545 -0.000003 -0.000003 -0.000003 10.093339 -0.951541 25.577628 20.227090 19.532558 52.408707 16.272816 10.236166 -12.103897 -0.000002 -0.000000 -0.000001 9.559375 0.248414 -3.075607 -23.283522 1.828810 10.696817 -0.005519 -6.890615 1.938639 -0.000000 0.000001 -0.000000 -2.766802 0.972188 2.251452 -7.068956 -5.408256 -2.914597 6.460632 4.445140 -3.583951 0.000000 -0.000000 -0.000002 
2.412939 105.760895 -1.096976 8.135528 -1.342463 -4.543998 -6.093914 -0.753217 0.331365 -1.641337 -0.994257 3.749193 4.267835 -0.231603 -0.599234 -3.426283 2.362536 0.731441 0.000000 0.000000 -0.000000 6.229036 1.612331 -12.994912 5.458689 -14.294865 -37.720242 22.090852 -5.434777 -5.578264 0.000003 -0.000004 0.000001 9.943184 -1.217922 25.651752 20.283481 18.999863 52.596527 16.156369 10.692236 -12.143830 -0.000002 0.000002 -0.000000 9.547191 0.253110 -3.123677 -23.110215 1.798014 10.692893 -0.409641 -6.971011 2.037264 -0.000000 0.000000 0.000001 -2.972738 0.945330 2.171804 -6.855849 -5.342466 -2.846588 6.378848 4.645738 -3.614287 0.000000 -0.000003 -0.000000 
